<?xml version="1.0" encoding="utf-8"?>
<svg fill-rule="evenodd" viewBox="0 0 4000 3600" xmlns="http://www.w3.org/2000/svg">
  <path fill="#080808" d="m533 83-24 3c-130 16-254 90-334 195a504 504 0 0 0 144 736l20 13 580 1000 577 1000 2 30a500 500 0 0 0 665 439 502 502 0 0 0 337-435l4-34c1-3 260-454 578-1003l578-997 15-10c230-130 317-420 200-658-124-250-440-354-687-220l-18 10H832l-32-18a513 513 0 0 0-148-47 980 980 0 0 0-118-4m106 27a480 480 0 0 1 283 806A480 480 0 0 1 97 599C87 341 277 132 545 105a732 732 0 0 1 96 4m2840-1a480 480 0 1 1-174 943 480 480 0 0 1-353-576 482 482 0 0 1 527-367m-360 77a510 510 0 0 0-198 376v13H1078l-1-10-3-34a500 500 0 0 0-186-338l-22-17 1134-1h1135l-15 10m-200 416a20950 20950 0 0 1-644 377 113 113 0 0 1-18-10 510 510 0 0 0-514-3c-10 7-22 12-23 12a30310 30310 0 0 1-322-185l-320-190v-6h1840v5m17 108a511 511 0 0 0 161 257 120 120 0 0 1 19 18c0 1-140 82-310 180l-310 173a520 520 0 0 1-5-26 510 510 0 0 0-179-303 123 123 0 0 1-16-14 16180 16180 0 0 1 314-182l313-180 4 27 10 50M1387 812l313 180c1 1-4 6-10 10-102 80-174 207-187 327-1 7-2 12-3 12a83838 83838 0 0 1-619-360c0-1 10-8 18-16a500 500 0 0 0 160-252 460 460 0 0 0 14-75c0-10-34-27 314 173m673 109a480 480 0 1 1-522 606 480 480 0 0 1 522-606m-880 262 318 184-1 17a510 510 0 0 0 268 458l10 4v725l-7 4c-6 3-8 3-10 1-1-1-206-355-455-786l-453-779 5-4c3-2 5-3 6-3s144 83 320 184m1969-173-458 786-450 780c0 1-4-1-10-3l-8-4v-723l15-8a500 500 0 0 0 262-432l1-42 318-184 320-184 6 3 6 3-4 6m-1863 790 454 790c0 1-10 10-22 18a500 500 0 0 0-214 356l-2 22-13-23-560-970-548-948a262 262 0 0 1 25 8 500 500 0 0 0 393-21l32-16c1 0 205 353 455 786m1966-750a513 513 0 0 0 362-6c4-2 8-3 10-2s-250 437-560 970l-560 967c-1-1-2-10-3-20a510 510 0 0 0-228-364c-5-3-10-7-10-8 1-2 900-1560 906-1570 3-4 3-4 32 10a686 686 0 0 0 50 22m-1397 827a510 510 0 0 0 321-10 330 330 0 0 1 26-9 14370 14370 0 0 1 2 352l-1 352c-1 0-4-1-7-3a520 520 0 0 0-379-4l-17 7v-705l16 7a488 488 0 0 0 39 14m227 670a480 480 0 1 1-144-3 674 674 0 0 1 144 3"/>
  <path fill="#fbfbfb" d="M520 110a480 480 0 0 0-280 814 480 480 0 0 0 814-341 480 480 0 0 0-535-474m2862-2a480 480 0 0 0-370 720 480 480 0 0 0 841-30 480 480 0 0 0-471-690M871 177l12 10a500 500 0 0 1 194 363l1 23h1840v-17a510 510 0 0 1 195-368l17-12H2000l-1130 2m1743 638-310 180c-2 1 3 6 13 13 95 74 160 187 180 310l4 26 308-178 308-180c0-1-3-5-8-8a510 510 0 0 1-182-320l-4-20a44000 44000 0 0 0-310 178M1073 660a500 500 0 0 1-172 308 275 275 0 0 0-18 16 11740 11740 0 0 0 300 174l310 180 10 6 4-26c20-120 84-230 178-305l18-15c-1-1-622-360-622-360s-2 10-4 24m895 262a480 480 0 0 0-392 706 480 480 0 0 0 849-20 480 480 0 0 0-461-688M812 1028a507 507 0 0 1-429 21c-3-1-3 0 2 10l560 968 553 957 2-10c10-65 18-95 33-133a507 507 0 0 1 187-233l20-13-23-40-454-787-435-748zm2350 5-900 1560c0 1 4 3 8 6a510 510 0 0 1 228 359l3 26 558-966 560-968c0-1-10 2-25 7a500 500 0 0 1-397-25l-23-12c-1 0-5 5-10 13M1798 2210l3 350a510 510 0 0 1 388-3l10 4v-700l-17 7c-116 47-253 46-375-3l-10-4v350m158 335a480 480 0 0 0-354 744 480 480 0 1 0 354-744"/>
  <path fill="#a3a3a3" d="M1540 574h920a33230 33230 0 0 0-462 0h-460m793 480 7 7 7 6-6-7-7-6m-342 1466h14c4 0 1-1-7-1s-10 0-7 1"/>
  <path fill="#747474" d="M3400 105c2 1 5 1 7 0s0-1-4-1-5 0-4 1M912 245c5 6 10 10 10 10s-3-4-10-10l-10-10c-1 0 3 4 10 10m-678 3-8 10 10-8c8-7 10-10 8-10l-10 10m2708 338c0 12 0 16 1 10s0-15 0-20-1-1-1 10m140 340s3 3 6 7l6 6-6-7-7-6M930 940l-6 7 7-6c4-3 7-6 7-7 0-2-2 0-7 6m730 120-6 7 7-6c4-3 7-6 7-7 0-2-2 0-7 6m820 326c0 6 0 8 1 4s0-7 0-10-1 0-1 6m0 24c0 6 0 8 1 4s0-7 0-10-1 0-1 6m-833 314 7 7 7 6-6-7-7-6m22 22c4 4 7 7 8 7s-2-3-6-7l-8-7c-1 0 2 3 6 7m532 465v352a16290 16290 0 0 0 2-352l-5-350a31590 31590 0 0 0-2 352m-209-333a147 147 0 0 0 19 0c5 0 1-1-10-1h-10m3 22a64 64 0 0 0 13 0c4-1 1-1-7-1s-10 0-7 1m-330 782-8 10c1 0 5-4 10-10l8-10s-5 4-10 10m820 328c0 6 0 8 1 4s0-7 0-10-1 0-1 6m0 24c0 6 0 8 1 4s0-7 0-10-1 0-1 6m-487 470a112 112 0 0 0 17 0c5 0 1-1-8-1s-13 0-8 1"/>
  <path fill="#848484" d="M570 106a64 64 0 0 0 13 0c4 0 1-1-6-1s-10 0-6 1m2846 0a64 64 0 0 0 13 0c4 0 1-1-6-1s-10 0-6 1"/>
  <path fill="#bcbcbc" d="M97 592c0 4 0 5 1 4s1-5 0-7-1 0-1 4"/>
  <path fill="#cfcfcf" d="m3083 247-8 10 10-8 10-10c0-1-2 0-10 8M1057 587c0 4 0 6 1 4s0-6 0-8-1 0-1 5m590 460-7 8 8-7c7-6 8-8 7-8a69 69 0 0 0-7 8m-1075 44h15c5 0 1-1-7-1s-12 0-7 1m2847 0h14c4 0 1-1-6-1s-10 0-7 1M1643 2670l-8 10 8-8c8-7 10-10 8-10a87 87 0 0 0-8 9"/>
  <text style="white-space: pre; fill: rgb(51, 51, 51); font-family: Arial, sans-serif; font-size: 130px;" x="1926.245" y="1461.991" transform="matrix(2.121602, 0, 0, 2.258065, -2233.781494, -1804.860596)">Nix</text>
  <text style="white-space: pre; fill: rgb(51, 51, 51); font-family: Arial, sans-serif; font-size: 130px;" x="1848.869" y="407.24">is not</text>
  <text style="white-space: pre; fill: rgb(51, 51, 51); font-family: Arial, sans-serif; font-size: 130px;" x="317.647" y="610.859">Nixpkgs</text>
  <text style="white-space: pre; fill: rgb(51, 51, 51); font-family: Arial, sans-serif; font-size: 130px;" x="3294.57" y="619.004">NixOS</text>
  <text style="white-space: pre; fill: rgb(51, 51, 51); font-family: Arial, sans-serif; font-size: 130px;" x="1669.683" y="2944.344" transform="matrix(1, 0, 0, 1, -36.651585, 69.230774)">Nix DSL</text>
  <text style="white-space: pre; fill: rgb(51, 51, 51); font-family: Arial, sans-serif; font-size: 130px;" x="1128.054" y="969.231">is</text>
  <text style="white-space: pre; fill: rgb(51, 51, 51); font-family: Arial, sans-serif; font-size: 130px;" x="2610.407" y="1022.172">is</text>
  <text style="white-space: pre; fill: rgb(51, 51, 51); font-family: Arial, sans-serif; font-size: 130px;" x="1934.39" y="2235.747">is</text>
  <text style="white-space: pre; fill: rgb(51, 51, 51); font-family: Arial, sans-serif; font-size: 130px;" x="838.914" y="1787.783">is not</text>
  <text style="white-space: pre; fill: rgb(51, 51, 51); font-family: Arial, sans-serif; font-size: 130px;" x="2756.377" y="1871.267">is not</text>
</svg>